<?xml version="1.0" encoding="UTF-8"?>
<svg id="Layer_1" xmlns="http://www.w3.org/2000/svg" version="1.1" viewBox="0 0 1024 1024">
  <!-- Generator: Adobe Illustrator 30.0.0, SVG Export Plug-In . SVG Version: 2.1.1 Build 123)  -->
  <path d="M168.54,167.83H6.99V27.36h477.62v140.47h-161.55v842.86h-154.52V167.83Z"/>
  <path d="M556.25,903.93c0-70.24,11.24-130.4,33.71-180.51,22.48-50.09,62.73-105.57,120.81-166.46,57.11-60.86,96.69-112.84,118.7-155.93,21.99-43.06,33.01-88.02,33.01-134.86,0-42.14-6.8-71.4-20.37-87.8-13.59-16.37-33.5-24.58-59.7-24.58-53.38,0-80.07,32.31-80.07,96.93v105.36h-146.09v-95.52c0-79.59,19.67-140.7,59-183.32,39.33-42.6,96.44-63.92,171.38-63.92s132.05,21.31,171.38,63.92c39.33,42.62,59,103.73,59,183.32,0,59.94-14.29,118.48-42.85,175.59-28.58,57.13-77.96,122.7-148.2,196.67-45.9,48.71-76.8,88.28-92.71,118.7-15.94,30.44-23.88,63-23.88,97.63v21.07h293.6v140.47h-446.72v-106.76Z"/>
</svg>