<?xml version="1.0" encoding="UTF-8"?>
<svg id="Layer_1" xmlns="http://www.w3.org/2000/svg" version="1.1" viewBox="0 0 1024 1024">
  <!-- Generator: Adobe Illustrator 30.0.0, SVG Export Plug-In . SVG Version: 2.1.1 Build 123)  -->
  <defs>
    <style>
      .st0 {
        fill: #a5a5a5;
      }

      .st1 {
        fill: #515151;
      }
    </style>
  </defs>
  <g>
    <path class="st1" d="M61.81,838.24v60.42H9.28v-178.63h52.53v60.42h315.22v57.79H61.81Z"/>
    <path class="st1" d="M9.28,692.19v-157.61h52.53v99.82h97.19v-79.33h52.53v79.33h112.95v-99.82h52.54v157.61H9.28Z"/>
    <path class="st1" d="M358.64,483.37c-15.76,14.54-38,21.8-66.72,21.8H94.39c-28.72,0-50.96-7.26-66.72-21.8-15.76-14.53-23.64-35.64-23.64-63.3s7.88-48.77,23.64-63.31c15.76-14.53,38-21.8,66.72-21.8h38.87v54.64h-42.55c-22.76,0-34.15,9.64-34.15,28.89s11.38,28.89,34.15,28.89h205.42c22.42,0,33.62-9.63,33.62-28.89s-11.21-28.89-33.62-28.89h-56.21v-54.64h52.01c28.72,0,50.96,7.27,66.72,21.8,15.76,14.54,23.64,35.64,23.64,63.31s-7.88,48.78-23.64,63.3Z"/>
    <path class="st1" d="M9.28,300.28v-57.79h149.73v-61.99H9.28v-57.79h367.75v57.79h-165.49v61.99h165.49v57.79H9.28Z"/>
  </g>
  <g>
    <path class="st1" d="M428.67,443.35c0-25.64,4.1-47.6,12.31-65.89,8.2-18.28,22.9-38.54,44.1-60.76,20.85-22.22,35.3-41.19,43.33-56.92,8.03-15.72,12.05-32.13,12.05-49.23,0-15.38-2.48-26.06-7.43-32.05-4.96-5.97-12.23-8.97-21.8-8.97-19.48,0-29.23,11.79-29.23,35.38v38.46h-53.33v-34.87c0-29.05,7.18-51.36,21.54-66.92,14.36-15.55,35.21-23.33,62.56-23.33s48.2,7.78,62.55,23.33c14.36,15.56,21.54,37.87,21.54,66.92,0,21.88-5.22,43.25-15.64,64.1-10.43,20.86-28.46,44.79-54.1,71.79-16.75,17.78-28.04,32.23-33.84,43.33-5.81,11.11-8.72,23-8.72,35.64v7.69h107.18v51.28h-163.07v-38.97Z"/>
    <path class="st1" d="M634.8,123.37h70.77l54.86,214.86h1.03V123.37h50.25v358.95h-57.94l-67.69-262.03h-1.03v262.03h-50.25V123.37Z"/>
    <path class="st1" d="M853.75,123.37h86.15c28.03,0,49.05,7.52,63.08,22.56,14.01,15.05,21.03,37.09,21.03,66.15v181.52c0,29.06-7.01,51.11-21.03,66.15-14.02,15.05-35.05,22.56-63.08,22.56h-86.15V123.37ZM938.88,431.04c9.23,0,16.32-2.73,21.28-8.2,4.95-5.46,7.43-14.36,7.43-26.67v-186.65c0-12.31-2.48-21.19-7.43-26.66-4.96-5.47-12.05-8.21-21.28-8.21h-28.72v256.39h28.72Z"/>
  </g>
  <g>
    <path class="st0" d="M428.32,532.75h57.79v367.75h-57.79v-367.75Z"/>
    <path class="st0" d="M529.18,532.75h72.5l56.21,220.13h1.05v-220.13h51.49v367.75h-59.37l-69.35-268.46h-1.05v268.46h-51.48v-367.75Z"/>
    <path class="st0" d="M771.63,882.11c-14.54-15.76-21.8-38-21.8-66.72v-197.53c0-28.72,7.26-50.96,21.8-66.72,14.53-15.76,35.64-23.64,63.3-23.64s48.77,7.88,63.31,23.64c14.53,15.76,21.8,38,21.8,66.72v38.87h-54.64v-42.55c0-22.76-9.64-34.15-28.89-34.15s-28.89,11.38-28.89,34.15v205.42c0,22.42,9.63,33.62,28.89,33.62s28.89-11.21,28.89-33.62v-56.21h54.64v52.01c0,28.72-7.27,50.96-21.8,66.72-14.54,15.76-35.64,23.64-63.31,23.64s-48.78-7.88-63.3-23.64Z"/>
  </g>
</svg>